<svg xmlns="http://www.w3.org/2000/svg" width="102.305" height="102.305" viewBox="0 0 102.305 102.305"><g transform="translate(8.525)"><path d="M65.576,0A25.576,25.576,0,0,0,40,25.576V44.332A11.949,11.949,0,0,0,51.936,56.268h1.705v-3.41H51.936a8.536,8.536,0,0,1-8.525-8.525V25.576a22.166,22.166,0,1,1,44.332,0V44.332a8.536,8.536,0,0,1-8.525,8.525H77.512v3.41h1.705A11.949,11.949,0,0,0,91.153,44.332V25.576A25.576,25.576,0,0,0,65.576,0Z" transform="translate(-40)"/></g><g transform="translate(8.526 76.569)"><path d="M45.528,363.038l1.246-1.963-2.88-1.828-1.246,1.964a17,17,0,0,0,.7,19.238v4.534h3.41v-5.115a1.7,1.7,0,0,0-.373-1.066A13.584,13.584,0,0,1,45.528,363.038Z" transform="translate(-40.003 -359.248)"/></g><g transform="translate(63.088)"><path d="M326.692,0H304.525A8.536,8.536,0,0,0,296,8.525V25.576a8.536,8.536,0,0,0,8.525,8.525h3.41v6.82a1.7,1.7,0,0,0,1.052,1.576,1.683,1.683,0,0,0,.653.13,1.7,1.7,0,0,0,1.206-.5l8.026-8.026h7.82a8.536,8.536,0,0,0,8.525-8.525V8.525A8.536,8.536,0,0,0,326.692,0Zm5.115,25.576a5.115,5.115,0,0,1-5.115,5.115h-8.525a1.7,1.7,0,0,0-1.206.5l-5.615,5.615V32.4a1.705,1.705,0,0,0-1.705-1.705h-5.115a5.115,5.115,0,0,1-5.115-5.115V8.525a5.115,5.115,0,0,1,5.115-5.115h22.166a5.115,5.115,0,0,1,5.115,5.115Z" transform="translate(-296)"/></g><g transform="translate(71.451 8.444)"><g transform="translate(0 0)"><rect width="12.342" height="3.248"/></g></g><g transform="translate(87.041 8.444)"><g transform="translate(0 0)"><rect width="6.496" height="3.248"/></g></g><g transform="translate(71.451 15.589)"><g transform="translate(0 0)"><rect width="22.085" height="3.248"/></g></g><g transform="translate(71.451 22.085)"><g transform="translate(0 0)"><rect width="12.342" height="3.248"/></g></g><g transform="translate(52.905 76.569)"><path d="M252.35,361.212l-1.246-1.964-2.88,1.828,1.246,1.964a13.581,13.581,0,0,1-.861,15.764,1.7,1.7,0,0,0-.373,1.066v5.115h3.41v-4.534A17,17,0,0,0,252.35,361.212Z" transform="translate(-248.224 -359.248)"/></g><g transform="translate(0 14.887)"><path d="M100.6,112.933H85.254a11.935,11.935,0,0,0-11.912,11.45L68.2,133.634v-7.061a11.949,11.949,0,0,0-11.936-11.936H50.036l-.046-.036-.031.036H46.037a3.41,3.41,0,0,1-3.41-3.41v-4.012a17.051,17.051,0,0,0,8.525-14.744V78.831a17.086,17.086,0,0,0-2.046-8.092,1.705,1.705,0,0,0-2.217-.733L18.03,83.585a1.7,1.7,0,0,0-.979,1.543v7.344a17.051,17.051,0,0,0,8.525,14.744v4.012a3.41,3.41,0,0,1-3.41,3.41H11.936A11.949,11.949,0,0,0,0,126.573v30.692H3.41V126.573a8.536,8.536,0,0,1,8.525-8.525h5.426L32.715,139.5a1.7,1.7,0,0,0,1.364.713H34.1a1.705,1.705,0,0,0,1.364-.682l16.2-21.484h4.6a8.536,8.536,0,0,1,8.525,8.525v13.641a1.705,1.705,0,0,0,3.2.827l8.038-14.468H85.8L69.177,157.265h3.879l16.631-30.692h.682a11.949,11.949,0,0,0,11.936-11.936A1.705,1.705,0,0,0,100.6,112.933ZM20.461,92.472V86.211L46.789,73.821a13.641,13.641,0,0,1,.953,5.01V92.472a13.641,13.641,0,0,1-27.281,0Zm13.676,43.159-5.262-7.352h10.8Zm8.121-10.763H26.429l-4.882-6.82h.619a6.82,6.82,0,0,0,6.82-6.82v-2.491a17.038,17.038,0,0,0,10.231,0v2.491a6.82,6.82,0,0,0,6.82,6.82H47.4Zm48.111-1.705H76.9a8.539,8.539,0,0,1,8.355-6.82h13.47A8.539,8.539,0,0,1,90.37,123.163Z" transform="translate(0 -69.847)"/></g></svg>