<svg xmlns="http://www.w3.org/2000/svg" width="105.054" height="105.042" viewBox="0 0 105.054 105.042"><g transform="translate(0 17.646)"><g transform="translate(0)"><path d="M104.718,112.61,87.895,86.957a2.052,2.052,0,0,0-1.716-.927H18.954a2.051,2.051,0,0,0-1.713.923L.391,112.53a2.052,2.052,0,0,0,.117,2.557l8.541,9.752a2.051,2.051,0,1,0,3.087-2.7l-5.56-6.349h27.6l13.868,47.345L32.37,145.239a2.051,2.051,0,1,0-3.087,2.7L50.99,172.726a2.051,2.051,0,0,0,3.087,0l23.11-26.393a2.052,2.052,0,1,0-3.087-2.7l-17.073,19.5,13.867-47.343H98.479L85.72,130.358a2.052,2.052,0,1,0,3.087,2.7l15.739-17.975A2.051,2.051,0,0,0,104.718,112.61Zm-98.855-.927L18.95,91.817l13.028,19.866Zm16.89-21.55H48.734l-12.99,19.809Zm29.78,1.689,13.024,19.86H39.509Zm0,72.048L38.449,115.786H66.617Zm16.823-53.877L56.332,90.133H82.38Zm3.8,1.689,13.024-19.86L99.2,111.683Z" transform="translate(0 -86.03)"/></g></g><g transform="translate(6.901 55.443)"><path d="M58.987,281.89a9.609,9.609,0,0,1-9.6-9.6,2.052,2.052,0,0,0-4.1,0,9.609,9.609,0,0,1-9.6,9.6,2.052,2.052,0,1,0,0,4.1,9.609,9.609,0,0,1,9.6,9.6,2.052,2.052,0,0,0,4.1,0,9.609,9.609,0,0,1,9.6-9.6,2.052,2.052,0,0,0,0-4.1Zm-11.65,6.5a13.809,13.809,0,0,0-4.444-4.444,13.807,13.807,0,0,0,4.444-4.444,13.809,13.809,0,0,0,4.444,4.444A13.809,13.809,0,0,0,47.337,288.386Z" transform="translate(-33.636 -270.24)"/></g><g transform="translate(84.537)"><path d="M430.475,8.233a6.162,6.162,0,0,1-6.155-6.155,2.052,2.052,0,0,0-4.1,0,6.162,6.162,0,0,1-6.155,6.155,2.052,2.052,0,0,0,0,4.1,6.162,6.162,0,0,1,6.155,6.155,2.052,2.052,0,0,0,4.1,0,6.162,6.162,0,0,1,6.155-6.155,2.052,2.052,0,0,0,0-4.1Zm-8.206,4.11a10.348,10.348,0,0,0-2.058-2.058,10.348,10.348,0,0,0,2.058-2.058,10.347,10.347,0,0,0,2.058,2.058A10.336,10.336,0,0,0,422.268,12.343Z" transform="translate(-412.01 -0.027)"/></g><g transform="translate(79.142 68.206)"><path d="M389.218,333.042a2.05,2.05,0,1,0,.6,1.45A2.058,2.058,0,0,0,389.218,333.042Z" transform="translate(-385.716 -332.441)"/></g></svg>