<svg xmlns="http://www.w3.org/2000/svg" width="112.48" height="102.172" viewBox="0 0 112.48 102.172"><g transform="translate(102.723 67.068)"><path d="M476.694,334.707l-5.362-5.319a2.2,2.2,0,1,0-3.095,3.12l5.362,5.319a2.2,2.2,0,0,0,3.095-3.12Z" transform="translate(-467.587 -328.751)"/></g><g transform="translate(97.25 61.62)"><path d="M446.429,304.6a2.2,2.2,0,0,0-3.107,0l0,0a2.2,2.2,0,1,0,3.111,0Z" transform="translate(-442.675 -303.952)"/></g><g transform="translate(0 0)"><path d="M82.271,95.857l21.316-21.316a8.274,8.274,0,0,0-3.993-13.919,8.283,8.283,0,0,0-6.1-11.65,8.266,8.266,0,0,0-6.449-10.747,8.284,8.284,0,0,0-11.818-9.877l-.212-.228a14.663,14.663,0,0,0-10.7-4.659H47.057a2.2,2.2,0,0,0-2.2,2.2v2.881a9.982,9.982,0,0,0,.568,3.331A8.281,8.281,0,0,0,34.391,42.121,8.28,8.28,0,0,0,27.933,52.87a8.28,8.28,0,0,0-6.1,11.644A8.281,8.281,0,0,0,17.84,78.438l4.384,4.383L.643,104.4a2.2,2.2,0,1,0,3.107,3.108L25.539,85.72A8.276,8.276,0,0,0,37.9,78.186c.111,0,.223.008.334.008a8.273,8.273,0,0,0,8.28-8.276c0-.112,0-.223-.008-.334.11,0,.22.008.33.008a8.273,8.273,0,0,0,8.28-8.276c0-.112,0-.223-.008-.334.11,0,.22.008.33.008a8.276,8.276,0,0,0,6.4-13.525L76.429,32.879a3.885,3.885,0,1,1,5.495,5.495l-2.151,2.151-7.8,7.8a2.2,2.2,0,1,0,3.107,3.108l7.8-7.8a3.886,3.886,0,1,1,5.5,5.5l-2.151,2.151L80.572,56.93a2.2,2.2,0,1,0,3.107,3.108l5.652-5.652a3.885,3.885,0,1,1,5.495,5.495l-2.952,2.952-2.7,2.7a2.2,2.2,0,1,0,3.107,3.108l2.7-2.7a3.886,3.886,0,0,1,5.493,5.5L79.161,92.751a29.767,29.767,0,0,1-20.031,8.726,2.2,2.2,0,0,0-1.477.645L37.962,121.886a2.2,2.2,0,1,0,3.113,3.1l14.483-14.537a20.424,20.424,0,0,0,12.4,3.191L79.3,124.978a2.2,2.2,0,0,0,3.107-3.108L70.354,109.817a2.2,2.2,0,0,0-1.733-.636l-.7.057a16.039,16.039,0,0,1-9.169-2l1.412-1.417A34.142,34.142,0,0,0,82.271,95.857ZM32.379,81.268a3.885,3.885,0,0,1-5.495,0l-5.937-5.937a3.886,3.886,0,1,1,5.5-5.5l5.937,5.937A3.89,3.89,0,0,1,32.379,81.268Zm8.6-8.6a3.89,3.89,0,0,1-5.5,0L29.55,66.728,26.6,63.776a3.886,3.886,0,1,1,5.495-5.5l8.889,8.889h0a3.886,3.886,0,0,1,0,5.5Zm8.6-8.6a3.89,3.89,0,0,1-5.5,0l-11.04-11.04a3.886,3.886,0,0,1,5.493-5.5l5.032,5.032,6.01,6.01h0a3.887,3.887,0,0,1,0,5.5Zm8.6-8.6a3.89,3.89,0,0,1-5.5,0L41.652,44.42l0,0L39.5,42.27a3.886,3.886,0,0,1,5.5-5.5l13.19,13.19a3.886,3.886,0,0,1,0,5.5Zm.578-11.132-6.035-6.035a10.054,10.054,0,0,0,2.1.223h.049l6.03-.028a2.2,2.2,0,0,0-.01-4.395h-.011l-6.03.028h-.027a5.581,5.581,0,0,1-5.581-5.581v-.684H64.31a10.255,10.255,0,0,1,7.483,3.258l.089.1Z" transform="translate(0 -23.462)"/></g></svg>