<svg xmlns="http://www.w3.org/2000/svg" width="127.647" height="107.072" viewBox="0 0 127.647 107.072"><g transform="translate(0)"><path d="M124.565,82.737a2.419,2.419,0,0,0-2.895.272c-2.128,1.917-4.288,3.682-6.521,5.335q.736-2.417,1.274-4.744a21.139,21.139,0,0,0,8.75-10.243,31.97,31.97,0,0,0,2.433-14.012,2.433,2.433,0,0,0-4.541-1.085,84.185,84.185,0,0,1-4.613,7.17c-.011-1.977-.1-3.894-.258-5.738,0-.037,0-.074,0-.111a81.677,81.677,0,0,0-3.121-16.974,1.873,1.873,0,1,0-3.592,1.06,78.572,78.572,0,0,1,2.368,10.766c-2.048-1.979-4.16-3.827-6.381-5.581A2.436,2.436,0,0,0,103.6,51.4c2.246,8.255,6,15.295,10.876,20.433q-.181,2.36-.554,4.854a81.3,81.3,0,0,0-4.4-6.945,2.435,2.435,0,0,0-4.421,1.3c-.246,5.819.332,14.311,4.374,22.186q-.85,2.151-1.909,4.372a80.031,80.031,0,0,0-2.2-7.869,2.438,2.438,0,0,0-2.291-1.659h-.019a2.432,2.432,0,0,0-2.292,1.618,44.681,44.681,0,0,0-2.227,22.379q-1.448,1.826-3.119,3.654a78.458,78.458,0,0,0,.2-8.194,2.435,2.435,0,0,0-4.392-1.381A46.206,46.206,0,0,0,82.4,127.075,35.525,35.525,0,0,1,72,132.88a35.481,35.481,0,0,0-8.172,4.113,35.486,35.486,0,0,0-8.172-4.113,35.522,35.522,0,0,1-10.406-5.8,46.2,46.2,0,0,0-8.831-20.926,2.435,2.435,0,0,0-4.391,1.381,78.379,78.379,0,0,0,.2,8.194q-1.669-1.825-3.119-3.654A44.682,44.682,0,0,0,26.88,89.692a2.431,2.431,0,0,0-2.292-1.618h-.02a2.438,2.438,0,0,0-2.29,1.659,80.038,80.038,0,0,0-2.2,7.868q-1.059-2.218-1.909-4.372c4.042-7.875,4.62-16.367,4.374-22.186a2.435,2.435,0,0,0-4.421-1.3,81.423,81.423,0,0,0-4.4,6.944q-.373-2.491-.554-4.854C18.041,66.7,21.8,59.656,24.041,51.4a2.436,2.436,0,0,0-3.861-2.548c-2.221,1.754-4.333,3.6-6.381,5.581a78.528,78.528,0,0,1,2.368-10.766,1.873,1.873,0,0,0-3.592-1.061A81.677,81.677,0,0,0,9.454,59.581c0,.04,0,.079,0,.118-.161,1.842-.246,3.757-.257,5.731a84.124,84.124,0,0,1-4.613-7.17A2.42,2.42,0,0,0,1.9,57.1a2.413,2.413,0,0,0-1.86,2.24A31.969,31.969,0,0,0,2.473,73.356,21.139,21.139,0,0,0,11.223,83.6q.538,2.324,1.274,4.744c-2.233-1.652-4.393-3.417-6.521-5.334A2.433,2.433,0,0,0,1.99,85.426c2.165,8.323,8.446,17.42,17.7,19.488q1.186,2.057,2.585,4.146c-2.61-.925-5.186-1.976-7.777-3.179a2.434,2.434,0,0,0-3.1,3.476c4.277,6.975,12.343,13.546,21.291,13.546.439,0,.881-.018,1.324-.05a78.071,78.071,0,0,0,8.363,6.745,39.961,39.961,0,0,0,11.953,6.786,32.46,32.46,0,0,1,6.234,2.958c-1.936,1.484-4.179,3.346-6.84,5.727a1.873,1.873,0,1,0,2.5,2.791c3.086-2.761,5.552-4.779,7.606-6.3,2.054,1.518,4.52,3.535,7.606,6.3a1.873,1.873,0,0,0,2.5-2.791c-2.661-2.381-4.9-4.243-6.84-5.727a32.476,32.476,0,0,1,6.234-2.958A39.953,39.953,0,0,0,85.267,129.6a78.131,78.131,0,0,0,8.369-6.749c.443.032.884.05,1.324.05,8.946,0,17.014-6.571,21.291-13.546a2.433,2.433,0,0,0-3.1-3.476c-2.592,1.2-5.167,2.254-7.778,3.179q1.4-2.086,2.585-4.146c9.255-2.068,15.536-11.165,17.7-19.488A2.415,2.415,0,0,0,124.565,82.737Zm-7-5.048c.051-.331.1-.661.15-.99.029-.2.054-.4.081-.6.041-.307.082-.614.119-.918.025-.205.048-.409.071-.613.034-.3.066-.594.1-.889q.03-.3.058-.605.04-.442.075-.88c.008-.108.02-.217.027-.324a85.423,85.423,0,0,0,5.455-7.462c-.61,5.095-2.584,10.278-6.2,13.746C117.516,78,117.537,77.844,117.561,77.689ZM3.954,64.408a85.452,85.452,0,0,0,5.455,7.462c.008.113.02.229.029.343q.033.421.072.847c.019.209.039.419.06.63.029.288.061.577.093.868.024.209.047.417.072.627.037.3.077.606.118.91.027.2.053.4.082.605.047.333.1.668.152,1,.023.15.044.3.068.45C6.537,74.685,4.564,69.5,3.954,64.408ZM18.791,75.485a41.849,41.849,0,0,1-2.453,12.6c-.047-.147-.092-.294-.137-.44-.079-.254-.157-.507-.233-.759-.061-.2-.118-.4-.177-.606-.072-.248-.143-.5-.212-.743-.056-.2-.11-.4-.164-.6q-.1-.365-.191-.728-.077-.3-.15-.6-.089-.36-.173-.719c-.023-.1-.046-.2-.069-.3A80.934,80.934,0,0,1,18.791,75.485ZM12.943,65.019c0-.215.007-.428.011-.642.005-.268.011-.535.02-.8.007-.213.015-.424.024-.635q.016-.393.036-.782.016-.313.036-.623.024-.387.053-.77c.008-.108.017-.215.026-.323,1.932-2.078,3.9-4,5.955-5.815A44.284,44.284,0,0,1,12.94,66.314c0-.158,0-.316,0-.473C12.939,65.566,12.939,65.291,12.943,65.019ZM7.217,89a88.453,88.453,0,0,0,7.364,5.359c.041.1.085.21.127.314q.151.381.309.765c.08.195.161.39.243.586.109.259.221.518.334.778.084.193.168.386.254.58.12.27.244.541.369.812.085.185.169.369.256.554.138.294.281.59.425.886.066.137.129.273.2.41C12.671,97.836,9.291,93.57,7.217,89Zm17.366,6a41.294,41.294,0,0,1,1.285,12.684c-.083-.121-.164-.241-.246-.362-.152-.224-.3-.448-.451-.671-.114-.172-.226-.344-.338-.516-.142-.218-.283-.437-.422-.654-.111-.175-.22-.349-.328-.524-.133-.214-.266-.428-.4-.641q-.16-.264-.317-.528-.188-.316-.371-.632l-.153-.267A79.531,79.531,0,0,1,24.583,95Zm-7.162,16.23a90.282,90.282,0,0,0,8.589,2.97c.069.088.142.175.211.262q.261.328.528.656.2.242.4.484c.184.221.371.442.559.663.134.158.268.315.4.473.2.229.4.457.6.686.132.149.263.3.4.447.225.249.455.5.686.747.1.107.194.214.294.32C25.211,118.1,20.733,115,17.421,111.228Zm23.044,12.253c-.215-.173-.43-.345-.641-.519-.163-.133-.323-.268-.483-.4-.2-.169-.405-.339-.6-.509-.161-.137-.319-.274-.477-.412q-.29-.252-.575-.506c-.156-.139-.311-.279-.464-.418q-.278-.252-.55-.505l-.232-.217a77.884,77.884,0,0,1-.669-8.1,42.9,42.9,0,0,1,5.046,11.862Zm50.742-3.487-.227.213q-.276.257-.558.513-.228.207-.459.413-.285.254-.577.508c-.158.138-.317.275-.477.413-.2.168-.4.335-.6.5-.164.137-.328.274-.494.411-.2.167-.411.333-.618.5l-.368.294A42.894,42.894,0,0,1,91.877,111.9,77.885,77.885,0,0,1,91.207,119.994Zm11.855-25a79.592,79.592,0,0,1,1.736,7.89l-.152.266q-.182.315-.37.63-.159.267-.321.535c-.127.21-.258.42-.389.63-.111.179-.222.357-.336.536-.135.212-.273.425-.411.637-.116.178-.232.357-.35.536-.14.211-.284.423-.428.635-.088.13-.176.26-.265.39A41.3,41.3,0,0,1,103.063,95Zm7.163,16.23c-3.313,3.771-7.79,6.873-12.671,7.709.111-.119.217-.238.328-.357.217-.235.434-.469.646-.7.141-.156.278-.312.417-.468.2-.222.394-.445.587-.667.14-.161.276-.322.414-.483q.279-.327.551-.654c.136-.163.27-.327.4-.49q.265-.325.523-.649c.071-.089.145-.178.214-.266A90.165,90.165,0,0,0,110.225,111.228Zm-1.683-56.6c2.052,1.812,4.023,3.736,5.955,5.814.009.112.018.224.027.336q.028.372.051.749.02.315.037.632.021.389.036.783c.008.209.017.419.024.63.008.269.014.539.02.811,0,.21.009.419.011.63,0,.277,0,.556,0,.835,0,.155,0,.309,0,.465A44.261,44.261,0,0,1,108.543,54.629Zm.312,20.855a80.862,80.862,0,0,1,3.959,7.1c-.023.1-.046.2-.07.307q-.082.352-.17.706-.074.3-.151.605-.093.364-.192.73c-.053.2-.106.4-.162.6-.07.253-.144.508-.217.763-.056.193-.112.387-.17.581-.079.264-.161.53-.244.8-.043.137-.085.275-.129.413A41.859,41.859,0,0,1,108.854,75.485Zm1.7,24.556c.066-.135.128-.268.193-.4.145-.3.289-.6.429-.895.086-.183.169-.365.253-.548.126-.273.251-.547.372-.819.085-.192.168-.382.251-.573.114-.263.227-.525.337-.786q.122-.289.24-.577.16-.39.314-.778c.04-.1.084-.2.124-.307A88.492,88.492,0,0,0,120.428,89C118.355,93.57,114.975,97.836,110.553,100.04Z" transform="translate(0 -41.264)"/></g><g transform="translate(44.248 17.311)"><path d="M214.095,147.776h-7.036V143.6a1.873,1.873,0,1,0-3.745,0v6.044a1.872,1.872,0,0,0,1.873,1.873h7.7v5.162h-27.8v-5.162H194.2a1.873,1.873,0,0,0,1.873-1.873V119.613c0-.314,0-1.855.008-3.456A1.873,1.873,0,0,0,193,114.716l-8.072,6.772-3.444-4.566,3.446-2.92a1.873,1.873,0,0,0-2.422-2.857l-3.954,3.351a3.041,3.041,0,0,0-.461,4.15l4.293,5.691a3.04,3.04,0,0,0,4.381.5l5.556-4.661v27.6h-8.447a2.54,2.54,0,0,0-2.537,2.537v7.577a2.54,2.54,0,0,0,2.537,2.538h30.217a2.54,2.54,0,0,0,2.537-2.538v-7.577A2.54,2.54,0,0,0,214.095,147.776Z" transform="translate(-177.482 -110.701)"/></g><g transform="translate(55.262 6.747)"><g transform="translate(0 0)"><path d="M237.183,68.326h-7.4a3.042,3.042,0,0,0-1.966.721L222.323,73.7a1.873,1.873,0,1,0,2.421,2.857l5.294-4.487h6.44V103.08a1.873,1.873,0,1,0,3.745,0V71.366A3.044,3.044,0,0,0,237.183,68.326Z" transform="translate(-221.661 -68.326)"/></g></g></svg>